<svg version="1.1" id="Layer_1" xmlns="http://www.w3.org/2000/svg" xmlns:xlink="http://www.w3.org/1999/xlink" x="0px" y="0px"
	 width="100%" viewBox="0 0 2000 471" enable-background="new 0 0 2000 471" xml:space="preserve">
<path fill="#6C7381" opacity="1.000000" stroke="none" 
	d="
M2000.000000,472.000000 
	C1334.295776,472.000000 668.591492,472.000000 2.445177,471.536133 
	C2.002098,314.381500 2.001049,157.690750 2.000000,1.000000 
	C667.704285,1.000000 1333.408569,1.000000 1999.554810,1.463882 
	C1999.997925,158.618515 1999.998901,315.309265 2000.000000,472.000000 
M1318.500000,18.856209 
	C886.118835,18.856209 453.737671,18.856209 21.324520,18.856209 
	C21.324520,164.300125 21.324520,309.026978 21.324520,453.785156 
	C674.647339,453.785156 1327.644897,453.785156 1980.674683,453.785156 
	C1980.674683,308.699615 1980.674683,163.972916 1980.674683,18.856207 
	C1760.066406,18.856207 1539.783203,18.856207 1318.500000,18.856209 
z"/>
<path fill="#4C6971" opacity="1.000000" stroke="none" 
	d="
M2000.500000,472.000000 
	C1999.998901,315.309265 1999.997925,158.618515 1999.998291,1.463890 
	C2000.333252,2.333350 2000.955566,3.666222 2000.957642,5.000084 
	C2001.011475,38.666649 2001.000000,72.333336 2001.000000,106.000000 
	C2001.000000,228.000000 2001.000000,350.000000 2000.500000,472.000000 
z"/>
<path fill="#4C6971" opacity="1.000000" stroke="none" 
	d="
M1.500000,1.000000 
	C2.001049,157.690750 2.002098,314.381500 2.001572,471.536133 
	C1.666665,470.666656 1.044371,469.333801 1.042243,467.999939 
	C0.988550,434.333374 1.000000,400.666656 1.000000,367.000000 
	C1.000000,245.000000 1.000000,123.000000 1.500000,1.000000 
z"/>
<path fill="#FEFEFE" opacity="1.000000" stroke="none" 
	d="
M1319.000000,18.856209 
	C1539.783203,18.856207 1760.066406,18.856207 1980.674683,18.856207 
	C1980.674683,163.972916 1980.674683,308.699615 1980.674683,453.785156 
	C1327.644897,453.785156 674.647339,453.785156 21.324520,453.785156 
	C21.324520,309.026978 21.324520,164.300125 21.324520,18.856209 
	C453.737671,18.856209 886.118835,18.856209 1319.000000,18.856209 
M1481.499756,417.325195 
	C1635.576294,417.325195 1789.652832,417.325195 1943.827637,417.325195 
	C1943.827637,296.436646 1943.827637,176.348846 1943.827637,55.973740 
	C1315.178223,55.973740 686.806274,55.973740 58.253036,55.973740 
	C58.253036,176.494522 58.253036,296.709259 58.253036,417.325226 
	C532.574097,417.325226 1006.536865,417.325226 1481.499756,417.325195 
z"/>
<path fill="#6B7280" opacity="1.000000" stroke="none" 
	d="
M1480.999756,417.325195 
	C1006.536865,417.325226 532.574097,417.325226 58.253036,417.325226 
	C58.253036,296.709259 58.253036,176.494522 58.253036,55.973740 
	C686.806274,55.973740 1315.178223,55.973740 1943.827637,55.973740 
	C1943.827637,176.348846 1943.827637,296.436646 1943.827637,417.325195 
	C1789.652832,417.325195 1635.576294,417.325195 1480.999756,417.325195 
M1690.165771,235.362579 
	C1688.987305,193.971741 1687.808838,152.580887 1686.621338,110.871826 
	C1669.722778,110.871826 1653.566528,111.141884 1637.428589,110.716805 
	C1632.192261,110.578873 1630.441406,112.419464 1629.028931,117.133331 
	C1609.738281,181.513458 1590.236938,245.830444 1570.772217,310.158386 
	C1570.261475,311.846252 1569.579102,313.482269 1568.604614,316.168091 
	C1548.075317,247.042206 1527.877075,179.030609 1507.744141,111.239212 
	C1489.578003,111.239212 1472.005981,111.239212 1454.132324,111.239212 
	C1451.856934,193.292175 1449.591675,274.986176 1447.321167,356.865295 
	C1455.617065,356.865295 1463.322876,356.865295 1471.443970,356.865295 
	C1473.304443,283.138153 1475.155518,209.785355 1477.006592,136.432571 
	C1478.262207,137.646347 1478.712646,138.995071 1479.121338,140.356339 
	C1500.312134,210.938583 1521.526733,281.513794 1542.610107,352.128143 
	C1543.715942,355.831970 1544.989624,357.582733 1549.289429,357.377899 
	C1558.101074,356.958221 1566.955444,357.020203 1575.774292,357.356750 
	C1579.748535,357.508423 1581.075439,356.012299 1582.162354,352.408264 
	C1602.769897,284.080566 1623.525391,215.797485 1644.259521,147.508011 
	C1645.196533,144.421509 1646.224365,141.362549 1647.209961,138.290771 
	C1647.481689,138.353745 1647.753540,138.416702 1648.025269,138.479675 
	C1649.752075,211.206161 1651.478882,283.932678 1653.212158,356.927490 
	C1666.884155,356.927490 1680.102539,356.927490 1693.850220,356.927490 
	C1692.623657,316.500916 1691.407349,276.412750 1690.165771,235.362579 
M1079.414917,315.100922 
	C1087.027710,328.004639 1094.599609,340.932831 1102.311401,353.777069 
	C1103.151367,355.176147 1104.781128,357.059631 1106.072510,357.081696 
	C1120.040771,357.320068 1134.014648,357.230499 1148.265381,357.230499 
	C1148.265381,274.936432 1148.265381,193.085327 1148.265381,111.116516 
	C1140.256958,111.116516 1132.645264,111.116516 1124.221924,111.116516 
	C1124.221924,178.790970 1124.221924,246.222717 1124.221924,313.654449 
	C1122.085938,312.173370 1121.037598,310.526978 1120.042358,308.849030 
	C1081.740845,244.273392 1043.419800,179.709381 1005.221924,115.072540 
	C1003.382141,111.959335 1001.492554,110.678146 997.821106,110.775597 
	C987.664429,111.045204 977.495911,110.868881 967.332031,110.868843 
	C964.583618,110.868828 961.835266,110.868835 959.219971,110.868835 
	C959.219971,193.430420 959.219971,275.155243 959.219971,356.981445 
	C967.190735,356.981445 974.784546,356.981445 982.960449,356.981445 
	C982.960449,289.044281 982.960449,221.378067 982.960449,153.711853 
	C983.324463,153.612747 983.688538,153.513641 984.052551,153.414536 
	C1015.718140,207.099274 1047.383789,260.783997 1079.414917,315.100922 
M240.561127,258.117493 
	C253.124832,251.087723 261.055847,240.068970 265.843140,226.954285 
	C274.910980,202.113235 274.921204,176.942245 265.816071,152.132919 
	C258.211914,131.413406 243.552948,118.022408 221.547867,113.757980 
	C213.740601,112.244995 205.727875,111.152115 197.793777,111.050293 
	C170.966965,110.706001 144.133377,110.887451 117.302368,110.889549 
	C116.027191,110.889648 114.752037,111.096642 113.386284,111.215141 
	C113.386284,193.285995 113.386284,275.018280 113.386284,356.823181 
	C127.070702,356.823181 140.436020,356.823181 154.208878,356.823181 
	C154.208878,327.131348 154.208878,297.863708 154.208878,268.036041 
	C156.384033,268.036041 158.172363,268.037506 159.960693,268.035797 
	C172.959549,268.023529 185.961975,268.196289 198.956314,267.947876 
	C213.237518,267.674896 227.132446,265.380341 240.561127,258.117493 
M1264.794800,356.788910 
	C1282.453735,362.070984 1300.444458,363.550507 1318.675293,360.961334 
	C1344.723267,357.262054 1366.148315,345.988586 1379.787842,322.510406 
	C1388.528564,307.465027 1390.725342,290.876923 1390.745972,273.876434 
	C1390.810059,221.376801 1390.773193,168.877060 1390.760498,116.377350 
	C1390.760010,114.634216 1390.599243,112.891106 1390.520752,111.298584 
	C1382.306885,111.298584 1374.747070,111.298584 1366.979370,111.298584 
	C1366.979370,134.213989 1366.993896,156.703430 1366.976074,179.192856 
	C1366.949097,213.025574 1367.250977,246.863602 1366.738647,280.689148 
	C1366.383057,304.163727 1357.823853,323.564758 1335.779541,334.982941 
	C1324.665894,340.739441 1312.794556,342.596466 1300.437012,341.901398 
	C1277.535400,340.613312 1260.105225,326.938873 1254.820801,304.640167 
	C1252.389160,294.379578 1251.312500,283.580597 1251.241089,273.014801 
	C1250.889282,221.017456 1251.080811,169.016434 1251.080688,117.016724 
	C1251.080688,115.086609 1251.080688,113.156494 1251.080688,111.150192 
	C1237.118042,111.150192 1223.861938,111.150192 1210.319092,111.150192 
	C1210.221802,112.360619 1210.077271,113.319618 1210.077393,114.278610 
	C1210.082764,169.611542 1209.837769,224.946884 1210.347290,280.275269 
	C1210.443970,290.775421 1212.461670,301.566284 1215.458008,311.669891 
	C1222.659912,335.953979 1241.209595,348.745483 1264.794800,356.788910 
M611.126648,212.295914 
	C600.674988,179.828049 590.190735,147.370560 579.825928,114.874969 
	C578.873108,111.887505 577.536133,110.734131 574.251770,110.785316 
	C560.921936,110.993057 547.584412,111.016289 534.255554,110.779190 
	C530.476257,110.711960 528.876526,111.775963 527.675903,115.515419 
	C502.294708,194.566010 476.742645,273.561737 451.237976,352.572723 
	C450.797760,353.936462 450.529694,355.355835 450.055481,357.252441 
	C456.497925,357.252441 462.484772,357.063812 468.451874,357.325684 
	C471.839813,357.474365 473.358032,356.445251 474.406494,353.052917 
	C481.137177,331.275635 488.205139,309.602722 494.993103,287.842743 
	C495.944153,284.794006 497.287506,283.733368 500.535461,283.747406 
	C530.367615,283.876526 560.201172,283.909424 590.032715,283.717224 
	C593.884460,283.692413 595.075928,285.252869 596.099915,288.494873 
	C602.213196,307.850861 608.514404,327.147491 614.757141,346.462585 
	C618.245056,357.254211 618.249084,357.252960 629.799683,357.252960 
	C638.897949,357.252960 647.996155,357.252930 657.943054,357.252930 
	C642.232117,308.603180 626.803040,260.826233 611.126648,212.295914 
M662.501831,110.875191 
	C657.077148,110.875191 651.652405,110.875191 646.293091,110.875191 
	C646.293091,118.057472 646.293091,124.469292 646.293091,131.385925 
	C668.225220,131.385925 689.813965,131.385925 712.064697,131.385925 
	C712.064697,206.929855 712.064697,281.961243 712.064697,356.882538 
	C725.991455,356.882538 739.243286,356.882538 752.999023,356.882538 
	C752.999023,281.614868 752.999023,206.710861 752.999023,131.162292 
	C774.880371,131.162292 796.260071,131.162292 817.692871,131.162292 
	C817.692871,124.102554 817.692871,117.693588 817.692871,110.875191 
	C766.089600,110.875191 714.795471,110.875191 662.501831,110.875191 
M355.145355,174.500076 
	C355.145355,153.409409 355.145355,132.318756 355.145355,111.176743 
	C341.157837,111.176743 327.908051,111.176743 314.422394,111.176743 
	C314.422394,193.207520 314.422394,274.935364 314.422394,356.860779 
	C356.751373,356.860779 398.784027,356.860779 440.828918,356.860779 
	C440.828918,350.071899 440.828918,343.677277 440.828918,336.814301 
	C412.210327,336.814301 383.958130,336.814301 355.145355,336.814301 
	C355.145355,282.725555 355.145355,229.112823 355.145355,174.500076 
M850.648804,153.499786 
	C850.648804,221.245941 850.648804,288.992096 850.648804,356.964783 
	C864.584778,356.964783 877.826843,356.964783 891.244141,356.964783 
	C891.244141,274.848969 891.244141,193.022659 891.244141,111.230560 
	C877.546997,111.230560 864.299561,111.230560 850.648804,111.230560 
	C850.648804,125.224586 850.648804,138.862167 850.648804,153.499786 
M1871.498291,235.028503 
	C1859.420654,235.028503 1847.342896,235.028503 1834.838379,235.028503 
	C1834.838379,216.882126 1834.838379,199.481354 1834.838379,182.057434 
	C1825.160400,182.057434 1815.929199,182.057434 1806.154785,182.057434 
	C1806.154785,199.846878 1806.154785,217.242584 1806.154785,235.174927 
	C1788.067749,235.174927 1770.527222,235.174927 1752.972900,235.174927 
	C1752.972900,244.959915 1752.972900,254.187973 1752.972900,264.013306 
	C1770.937012,264.013306 1788.492310,264.013306 1806.669434,264.013306 
	C1806.669434,282.319061 1806.669434,300.023743 1806.669434,317.669037 
	C1816.397217,317.669037 1825.485596,317.669037 1835.094971,317.669037 
	C1835.094971,299.647430 1835.094971,281.920288 1835.094971,263.689880 
	C1853.189575,263.689880 1870.763794,263.689880 1888.628418,263.689880 
	C1888.628418,253.963364 1888.628418,244.750977 1888.628418,235.028503 
	C1883.070679,235.028503 1877.783936,235.028503 1871.498291,235.028503 
z"/>
<path fill="#FEFEFE" opacity="1.000000" stroke="none" 
	d="
M1690.178467,235.843567 
	C1691.407349,276.412750 1692.623657,316.500916 1693.850220,356.927490 
	C1680.102539,356.927490 1666.884155,356.927490 1653.212158,356.927490 
	C1651.478882,283.932678 1649.752075,211.206161 1648.025269,138.479675 
	C1647.753540,138.416702 1647.481689,138.353745 1647.209961,138.290771 
	C1646.224365,141.362549 1645.196533,144.421509 1644.259521,147.508011 
	C1623.525391,215.797485 1602.769897,284.080566 1582.162354,352.408264 
	C1581.075439,356.012299 1579.748535,357.508423 1575.774292,357.356750 
	C1566.955444,357.020203 1558.101074,356.958221 1549.289429,357.377899 
	C1544.989624,357.582733 1543.715942,355.831970 1542.610107,352.128143 
	C1521.526733,281.513794 1500.312134,210.938583 1479.121338,140.356339 
	C1478.712646,138.995071 1478.262207,137.646347 1477.006592,136.432571 
	C1475.155518,209.785355 1473.304443,283.138153 1471.443970,356.865295 
	C1463.322876,356.865295 1455.617065,356.865295 1447.321167,356.865295 
	C1449.591675,274.986176 1451.856934,193.292175 1454.132324,111.239212 
	C1472.005981,111.239212 1489.578003,111.239212 1507.744141,111.239212 
	C1527.877075,179.030609 1548.075317,247.042206 1568.604614,316.168091 
	C1569.579102,313.482269 1570.261475,311.846252 1570.772217,310.158386 
	C1590.236938,245.830444 1609.738281,181.513458 1629.028931,117.133331 
	C1630.441406,112.419464 1632.192261,110.578873 1637.428589,110.716805 
	C1653.566528,111.141884 1669.722778,110.871826 1686.621338,110.871826 
	C1687.808838,152.580887 1688.987305,193.971741 1690.178467,235.843567 
z"/>
<path fill="#FDFDFD" opacity="1.000000" stroke="none" 
	d="
M1079.232178,314.784851 
	C1047.383789,260.783997 1015.718140,207.099274 984.052551,153.414536 
	C983.688538,153.513641 983.324463,153.612747 982.960449,153.711853 
	C982.960449,221.378067 982.960449,289.044281 982.960449,356.981445 
	C974.784546,356.981445 967.190735,356.981445 959.219971,356.981445 
	C959.219971,275.155243 959.219971,193.430420 959.219971,110.868835 
	C961.835266,110.868835 964.583618,110.868828 967.332031,110.868843 
	C977.495911,110.868881 987.664429,111.045204 997.821106,110.775597 
	C1001.492554,110.678146 1003.382141,111.959335 1005.221924,115.072540 
	C1043.419800,179.709381 1081.740845,244.273392 1120.042358,308.849030 
	C1121.037598,310.526978 1122.085938,312.173370 1124.221924,313.654449 
	C1124.221924,246.222717 1124.221924,178.790970 1124.221924,111.116516 
	C1132.645264,111.116516 1140.256958,111.116516 1148.265381,111.116516 
	C1148.265381,193.085327 1148.265381,274.936432 1148.265381,357.230499 
	C1134.014648,357.230499 1120.040771,357.320068 1106.072510,357.081696 
	C1104.781128,357.059631 1103.151367,355.176147 1102.311401,353.777069 
	C1094.599609,340.932831 1087.027710,328.004639 1079.232178,314.784851 
z"/>
<path fill="#FEFEFE" opacity="1.000000" stroke="none" 
	d="
M240.244141,258.307068 
	C227.132446,265.380341 213.237518,267.674896 198.956314,267.947876 
	C185.961975,268.196289 172.959549,268.023529 159.960693,268.035797 
	C158.172363,268.037506 156.384033,268.036041 154.208878,268.036041 
	C154.208878,297.863708 154.208878,327.131348 154.208878,356.823181 
	C140.436020,356.823181 127.070702,356.823181 113.386284,356.823181 
	C113.386284,275.018280 113.386284,193.285995 113.386284,111.215141 
	C114.752037,111.096642 116.027191,110.889648 117.302368,110.889549 
	C144.133377,110.887451 170.966965,110.706001 197.793777,111.050293 
	C205.727875,111.152115 213.740601,112.244995 221.547867,113.757980 
	C243.552948,118.022408 258.211914,131.413406 265.816071,152.132919 
	C274.921204,176.942245 274.910980,202.113235 265.843140,226.954285 
	C261.055847,240.068970 253.124832,251.087723 240.244141,258.307068 
M180.491257,126.076874 
	C171.757446,126.076874 163.023636,126.076874 154.410828,126.076874 
	C154.410828,169.022980 154.410828,211.066193 154.410828,253.332092 
	C167.339783,253.332092 179.959518,253.673477 192.552979,253.244141 
	C207.715729,252.727234 218.070053,244.769638 224.056839,230.994720 
	C232.010498,212.694214 232.426331,193.406616 230.340515,174.106232 
	C229.390244,165.313278 226.904785,156.454025 223.662796,148.195145 
	C218.749481,135.678650 209.115707,128.151016 195.426575,126.681473 
	C190.811340,126.186028 186.134750,126.262039 180.491257,126.076874 
z"/>
<path fill="#FEFEFE" opacity="1.000000" stroke="none" 
	d="
M1264.422974,356.646332 
	C1241.209595,348.745483 1222.659912,335.953979 1215.458008,311.669891 
	C1212.461670,301.566284 1210.443970,290.775421 1210.347290,280.275269 
	C1209.837769,224.946884 1210.082764,169.611542 1210.077393,114.278610 
	C1210.077271,113.319618 1210.221802,112.360619 1210.319092,111.150192 
	C1223.861938,111.150192 1237.118042,111.150192 1251.080688,111.150192 
	C1251.080688,113.156494 1251.080688,115.086609 1251.080688,117.016724 
	C1251.080811,169.016434 1250.889282,221.017456 1251.241089,273.014801 
	C1251.312500,283.580597 1252.389160,294.379578 1254.820801,304.640167 
	C1260.105225,326.938873 1277.535400,340.613312 1300.437012,341.901398 
	C1312.794556,342.596466 1324.665894,340.739441 1335.779541,334.982941 
	C1357.823853,323.564758 1366.383057,304.163727 1366.738647,280.689148 
	C1367.250977,246.863602 1366.949097,213.025574 1366.976074,179.192856 
	C1366.993896,156.703430 1366.979370,134.213989 1366.979370,111.298584 
	C1374.747070,111.298584 1382.306885,111.298584 1390.520752,111.298584 
	C1390.599243,112.891106 1390.760010,114.634216 1390.760498,116.377350 
	C1390.773193,168.877060 1390.810059,221.376801 1390.745972,273.876434 
	C1390.725342,290.876923 1388.528564,307.465027 1379.787842,322.510406 
	C1366.148315,345.988586 1344.723267,357.262054 1318.675293,360.961334 
	C1300.444458,363.550507 1282.453735,362.070984 1264.422974,356.646332 
z"/>
<path fill="#FEFEFE" opacity="1.000000" stroke="none" 
	d="
M611.250305,212.672577 
	C626.803040,260.826233 642.232117,308.603180 657.943054,357.252930 
	C647.996155,357.252930 638.897949,357.252960 629.799683,357.252960 
	C618.249084,357.252960 618.245056,357.254211 614.757141,346.462585 
	C608.514404,327.147491 602.213196,307.850861 596.099915,288.494873 
	C595.075928,285.252869 593.884460,283.692413 590.032715,283.717224 
	C560.201172,283.909424 530.367615,283.876526 500.535461,283.747406 
	C497.287506,283.733368 495.944153,284.794006 494.993103,287.842743 
	C488.205139,309.602722 481.137177,331.275635 474.406494,353.052917 
	C473.358032,356.445251 471.839813,357.474365 468.451874,357.325684 
	C462.484772,357.063812 456.497925,357.252441 450.055481,357.252441 
	C450.529694,355.355835 450.797760,353.936462 451.237976,352.572723 
	C476.742645,273.561737 502.294708,194.566010 527.675903,115.515419 
	C528.876526,111.775963 530.476257,110.711960 534.255554,110.779190 
	C547.584412,111.016289 560.921936,110.993057 574.251770,110.785316 
	C577.536133,110.734131 578.873108,111.887505 579.825928,114.874969 
	C590.190735,147.370560 600.674988,179.828049 611.250305,212.672577 
M566.680603,196.844345 
	C559.718140,175.106842 552.755676,153.369339 545.338318,130.211685 
	C530.913147,175.621582 516.943787,219.596512 502.878235,263.874329 
	C531.488342,263.874329 559.455017,263.874329 587.973938,263.874329 
	C580.890991,241.585739 573.903687,219.598099 566.680603,196.844345 
z"/>
<path fill="#FFFFFF" opacity="1.000000" stroke="none" 
	d="
M663.001587,110.875191 
	C714.795471,110.875191 766.089600,110.875191 817.692871,110.875191 
	C817.692871,117.693588 817.692871,124.102554 817.692871,131.162292 
	C796.260071,131.162292 774.880371,131.162292 752.999023,131.162292 
	C752.999023,206.710861 752.999023,281.614868 752.999023,356.882538 
	C739.243286,356.882538 725.991455,356.882538 712.064697,356.882538 
	C712.064697,281.961243 712.064697,206.929855 712.064697,131.385925 
	C689.813965,131.385925 668.225220,131.385925 646.293091,131.385925 
	C646.293091,124.469292 646.293091,118.057472 646.293091,110.875191 
	C651.652405,110.875191 657.077148,110.875191 663.001587,110.875191 
z"/>
<path fill="#FEFEFE" opacity="1.000000" stroke="none" 
	d="
M355.145355,175.000092 
	C355.145355,229.112823 355.145355,282.725555 355.145355,336.814301 
	C383.958130,336.814301 412.210327,336.814301 440.828918,336.814301 
	C440.828918,343.677277 440.828918,350.071899 440.828918,356.860779 
	C398.784027,356.860779 356.751373,356.860779 314.422394,356.860779 
	C314.422394,274.935364 314.422394,193.207520 314.422394,111.176743 
	C327.908051,111.176743 341.157837,111.176743 355.145355,111.176743 
	C355.145355,132.318756 355.145355,153.409409 355.145355,175.000092 
z"/>
<path fill="#FEFEFE" opacity="1.000000" stroke="none" 
	d="
M850.648804,152.999771 
	C850.648804,138.862167 850.648804,125.224586 850.648804,111.230560 
	C864.299561,111.230560 877.546997,111.230560 891.244141,111.230560 
	C891.244141,193.022659 891.244141,274.848969 891.244141,356.964783 
	C877.826843,356.964783 864.584778,356.964783 850.648804,356.964783 
	C850.648804,288.992096 850.648804,221.245941 850.648804,152.999771 
z"/>
<path fill="#FDFDFD" opacity="1.000000" stroke="none" 
	d="
M1871.997681,235.028503 
	C1877.783936,235.028503 1883.070679,235.028503 1888.628418,235.028503 
	C1888.628418,244.750977 1888.628418,253.963364 1888.628418,263.689880 
	C1870.763794,263.689880 1853.189575,263.689880 1835.094971,263.689880 
	C1835.094971,281.920288 1835.094971,299.647430 1835.094971,317.669037 
	C1825.485596,317.669037 1816.397217,317.669037 1806.669434,317.669037 
	C1806.669434,300.023743 1806.669434,282.319061 1806.669434,264.013306 
	C1788.492310,264.013306 1770.937012,264.013306 1752.972900,264.013306 
	C1752.972900,254.187973 1752.972900,244.959915 1752.972900,235.174927 
	C1770.527222,235.174927 1788.067749,235.174927 1806.154785,235.174927 
	C1806.154785,217.242584 1806.154785,199.846878 1806.154785,182.057434 
	C1815.929199,182.057434 1825.160400,182.057434 1834.838379,182.057434 
	C1834.838379,199.481354 1834.838379,216.882126 1834.838379,235.028503 
	C1847.342896,235.028503 1859.420654,235.028503 1871.997681,235.028503 
z"/>
<path fill="#6C7381" opacity="1.000000" stroke="none" 
	d="
M180.988739,126.076874 
	C186.134750,126.262039 190.811340,126.186028 195.426575,126.681473 
	C209.115707,128.151016 218.749481,135.678650 223.662796,148.195145 
	C226.904785,156.454025 229.390244,165.313278 230.340515,174.106232 
	C232.426331,193.406616 232.010498,212.694214 224.056839,230.994720 
	C218.070053,244.769638 207.715729,252.727234 192.552979,253.244141 
	C179.959518,253.673477 167.339783,253.332092 154.410828,253.332092 
	C154.410828,211.066193 154.410828,169.022980 154.410828,126.076874 
	C163.023636,126.076874 171.757446,126.076874 180.988739,126.076874 
z"/>
<path fill="#6C7381" opacity="1.000000" stroke="none" 
	d="
M566.798462,197.227402 
	C573.903687,219.598099 580.890991,241.585739 587.973938,263.874329 
	C559.455017,263.874329 531.488342,263.874329 502.878235,263.874329 
	C516.943787,219.596512 530.913147,175.621582 545.338318,130.211685 
	C552.755676,153.369339 559.718140,175.106842 566.798462,197.227402 
z"/>
</svg>